<svg width="120" height="40" viewBox="0 0 120 40" fill="none" xmlns="http://www.w3.org/2000/svg">
  <path d="M20 10C20 10 10 10 10 10C10 10 5 20 20 35C35 20 30 10 30 10L20 10Z" fill="#383E4E"/>
  <path d="M45 15H50V30H45V15Z" fill="#383E4E"/>
  <path d="M55 15H68V20H60V22H65V26H60V30H55V15Z" fill="#383E4E"/>
  <path d="M70 15H83V20H75V22H80V26H75V30H70V15Z" fill="#383E4E"/>
  <path d="M85 15H98C98 15 100 15 100 17.5C100 20 100 25 100 27.5C100 30 98 30 98 30H85V15ZM90 20V25H95V20H90Z" fill="#383E4E"/>
  <path d="M105 15H110V30H105V15Z" fill="#383E4E"/>
</svg>